<?xml version="1.0" encoding="UTF-8" standalone="no"?> <svg xmlns="http://www.w3.org/2000/svg" width="512" height="512" viewBox="0 0 512 512">    <path d="M476,240h-4V132a28.031,28.031,0,0,0-28-28H68a28.031,28.031,0,0,0-28,28V240H36A28.031,28.031,0,0,0,8,268V400a8,8,0,0,0,8,8H40a8,8,0,0,0,7.59-5.47L53.77,384H458.23l6.18,18.53A8,8,0,0,0,472,408h24a8,8,0,0,0,8-8V268A28.031,28.031,0,0,0,476,240ZM56,132a12.01,12.01,0,0,1,12-12H444a12.01,12.01,0,0,1,12,12V240H416V228a28.031,28.031,0,0,0-28-28H300a28.031,28.031,0,0,0-28,28v12H240V228a28.031,28.031,0,0,0-28-28H124a28.031,28.031,0,0,0-28,28v12H56Zm344,96v12H288V228a12.01,12.01,0,0,1,12-12h88A12.01,12.01,0,0,1,400,228Zm-176,0v12H112V228a12.01,12.01,0,0,1,12-12h88A12.01,12.01,0,0,1,224,228ZM34.23,392H24v-8H36.9ZM488,392H477.77l-2.67-8H488Zm0-24H24V352H488Zm0-32H24V268a12.01,12.01,0,0,1,12-12H476a12.01,12.01,0,0,1,12,12Z"/></svg>